# xmcd
# 
# Track frame offsets:
#   150
#   14337
#   29386
#   42624
#   54732
#   68180
#   80119
#   93588
#   106865
#   121378
#   133069
#   145164
#   159818
#   173337
#   186734
#   198352
#   211808
# 
# Disc length: 2976 seconds
# 
# Revision: 2
# Processed by: cddbd v1.5.2PL0 Copyright (c) Steve Scherf et al.
# Submitted via: Synapstar 1.0 
# 
DISCID=f20b9e11
DTITLE=Various Artist - CBEP451-01
DYEAR=1900
DGENRE=Country
TTITLE0=Hank Snow - I'm Movin On
TTITLE1=Lefty Frizzell - Always Late With Your Kisses
TTITLE2=Tex Williama - Smoke! Smoke! Smoke! That Cigarette
TTITLE3=George Morgan - Candy Kisses
TTITLE4=Hank Williams - Move It On Over
TTITLE5=Eddie Arnold - Bouquet Of Roses
TTITLE6=Red Foley - Chattanoogie Shoeshine Boy
TTITLE7=Hank Thompson - The Wild Side Of Life
TTITLE8=Pee Wee King - Slow Poke
TTITLE9=Hank Williams - I Can't Help It If I'm Still In Love With You
TTITLE10=Bob Willis - San Antonio Rose
TTITLE11=Ernest Tubb - It's Been So Long Darling
TTITLE12=Al Dexter and His Troops - Pistol Packin Mama
TTITLE13=Webb Pierce - Back Street Affair
TTITLE14=Hank Williams - Why Don't You Love Me
TTITLE15=Jimmy Wakely - One Has My Name, The Other Has My Heart
TTITLE16=Hank Williams - Honky Tonk Blues
EXTD=Chartbuster MediaType: Karaoke CD+G Producer: Chartbuster
EXTT0=
EXTT1=
EXTT2=
EXTT3=
EXTT4=
EXTT5=
EXTT6=
EXTT7=
EXTT8=
EXTT9=
EXTT10=
EXTT11=
EXTT12=
EXTT13=
EXTT14=
EXTT15=
EXTT16=
PLAYORDER=
